<svg xmlns="http://www.w3.org/2000/svg" width="43.11" height="39.76" viewBox="0 0 43.11 39.76"><title>Artboard 1</title><path d="M37.11,13.57l-.1-.09a9.2,9.2,0,0,0-5.5-2.5,10.56,10.56,0,0,0-10.3-8.35,10.42,10.42,0,0,0-8.35,4.08A10.67,10.67,0,0,0,10.91,11a9.14,9.14,0,0,0-5.5,2.54l-.11.1a9.09,9.09,0,0,0-2.72,6.29v.36a9.12,9.12,0,0,0,2.59,6.12l.14.15a9.14,9.14,0,0,0,5.61,2.64,10.53,10.53,0,0,0,20.58,0,9.18,9.18,0,0,0,5.63-2.65l.12-.13a9.06,9.06,0,0,0,2.57-6.17V19.9A9.15,9.15,0,0,0,37.11,13.57Z" style="fill:#00adef"/><path d="M41.75,19.86a10.07,10.07,0,0,0-3-7l-.11-.1A10.11,10.11,0,0,0,32.57,10,11.64,11.64,0,0,0,21.21.79,11.48,11.48,0,0,0,12,5.29,11.75,11.75,0,0,0,9.85,10a10.11,10.11,0,0,0-6.06,2.8l-.12.11a10,10,0,0,0-3,6.94v.4A10,10,0,0,0,3.53,27l.15.16a10.09,10.09,0,0,0,6.19,2.91,11.61,11.61,0,0,0,22.7,0,10.1,10.1,0,0,0,6.21-2.92l.13-.14a10,10,0,0,0,2.83-6.8V20A.66.66,0,0,0,41.75,19.86Zm-5,5.14a7,7,0,0,1-4.58,2,10.88,10.88,0,0,0-.46-2.47l.11-.16A4.3,4.3,0,0,0,35,23h0a4.85,4.85,0,0,0,1.59-3.29,3.83,3.83,0,0,0-1.06-2.91h0a6.08,6.08,0,0,0-3.37-1.38h0a4.27,4.27,0,0,0-3.39,1.33h-.1c-.09.09-.22.19-.3.28l1.1.85-4.91,1.65.35-5.17,1.28,1A5.89,5.89,0,1,0,17.58,17a15.42,15.42,0,0,0,3,1.53c2.17.87,4.42,1.21,6.22,2.82A8.52,8.52,0,0,1,16,34.51a8.29,8.29,0,0,1-3-7.77,5.23,5.23,0,0,1-1.88.31v.2h0V27a8,8,0,0,1-5.2-2H5.86a6.88,6.88,0,0,1-2.11-5,7,7,0,0,1,2-4.89v.06a6.89,6.89,0,0,1,4.46-2,11.33,11.33,0,0,0,.43,2.38h0a4.27,4.27,0,0,0-2.89,1.38h0a4.22,4.22,0,0,0-1.39,2.91A4.52,4.52,0,0,0,7.49,23h0a4.58,4.58,0,0,0,3.09,1.38,4.48,4.48,0,0,0,3.26-1.25h.06a3.07,3.07,0,0,0,.26-.25L13,22.07l4.88-1.59-.32,5.15-1.34-1a5.9,5.9,0,1,0,8.57-1.5,7.61,7.61,0,0,0-.85-.54h0c-2.56-1.33-5.6-1.73-8-3.47A8.58,8.58,0,0,1,26.46,5.57a8.67,8.67,0,0,1,3.43,7.76A7.81,7.81,0,0,1,32.14,13h0a7,7,0,0,1,4.77,2h-.1a7,7,0,0,1,2,4.89,6.82,6.82,0,0,1-2.07,5Z" style="fill:#fff"/></svg>